<svg xmlns="http://www.w3.org/2000/svg" viewBox="0 0 400 300" width="400" height="300" role="img" aria-label="Forma theme preview">
  <rect width="400" height="300" fill="#f3f3f1"/>
  <!-- header -->
  <line x1="0" y1="40" x2="400" y2="40" stroke="#e2e2df" stroke-width="1"/>
  <text x="24" y="27" font-family="'Sora',sans-serif" font-weight="700" font-size="18" fill="#14161c">Forma</text>
  <text x="250" y="25" font-family="'Space Mono',monospace" font-size="8" fill="#6a6e78">BOTTLE&#160;&#160;SPECS&#160;&#160;BUY</text>
  <circle cx="372" cy="22" r="7" fill="#2f4fe0"/>
  <text x="369.5" y="25" font-family="'Sora',sans-serif" font-size="8" fill="#ffffff">1</text>
  <!-- left: copy -->
  <text x="24" y="86" font-family="'Space Mono',monospace" font-size="8" letter-spacing="1.5" fill="#2f4fe0">ONE PRODUCT, DONE PROPERLY</text>
  <text x="24" y="120" font-family="'Sora',sans-serif" font-weight="800" font-size="34" fill="#14161c">Meet</text>
  <text x="24" y="156" font-family="'Sora',sans-serif" font-weight="800" font-size="34" fill="#2f4fe0">Cobalt.</text>
  <text x="24" y="184" font-family="'Sora',sans-serif" font-size="9" fill="#6a6e78">A vacuum-insulated bottle,</text>
  <text x="24" y="197" font-family="'Sora',sans-serif" font-size="9" fill="#6a6e78">engineered to one perfect form.</text>
  <rect x="24" y="212" width="104" height="26" rx="6" fill="#2f4fe0"/>
  <text x="76" y="229" text-anchor="middle" font-family="'Sora',sans-serif" font-size="9" font-weight="600" fill="#ffffff">Configure yours</text>
  <text x="142" y="229" font-family="'Sora',sans-serif" font-weight="700" font-size="13" fill="#14161c">&#8364;45</text>
  <!-- right: product stage -->
  <rect x="236" y="58" width="144" height="184" rx="12" fill="#ffffff" stroke="#e2e2df"/>
  <rect x="296" y="86" width="24" height="14" rx="4" fill="#14161c"/>
  <rect x="290" y="100" width="36" height="118" rx="16" fill="#2f4fe0"/>
  <rect x="298" y="120" width="20" height="60" rx="8" fill="#5e77e8" opacity="0.6"/>
  <text x="252" y="232" font-family="'Space Mono',monospace" font-size="7" fill="#6a6e78">FIG. 01 — COBALT / 500ML</text>
  <!-- spec row -->
  <line x1="0" y1="258" x2="400" y2="258" stroke="#e2e2df" stroke-width="1"/>
  <text x="24" y="276" font-family="'Space Mono',monospace" font-size="7" fill="#6a6e78">COLD</text>
  <text x="24" y="290" font-family="'Sora',sans-serif" font-weight="600" font-size="11" fill="#14161c">24 hrs</text>
  <text x="122" y="276" font-family="'Space Mono',monospace" font-size="7" fill="#6a6e78">HOT</text>
  <text x="122" y="290" font-family="'Sora',sans-serif" font-weight="600" font-size="11" fill="#14161c">12 hrs</text>
  <text x="220" y="276" font-family="'Space Mono',monospace" font-size="7" fill="#6a6e78">WEIGHT</text>
  <text x="220" y="290" font-family="'Sora',sans-serif" font-weight="600" font-size="11" fill="#14161c">340 g</text>
  <text x="318" y="276" font-family="'Space Mono',monospace" font-size="7" fill="#6a6e78">STEEL</text>
  <text x="318" y="290" font-family="'Sora',sans-serif" font-weight="600" font-size="11" fill="#14161c">18/8</text>
</svg>
